<?xml version="1.0" standalone="no"?>
<!DOCTYPE svg PUBLIC "-//W3C//DTD SVG 20010904//EN"
 "http://www.w3.org/TR/2001/REC-SVG-20010904/DTD/svg10.dtd">
<svg version="1.0" xmlns="http://www.w3.org/2000/svg"
 width="680.000000pt" height="576.000000pt" viewBox="0 0 680.000000 576.000000"
 preserveAspectRatio="xMidYMid meet">
<metadata>
Created by potrace 1.16, written by Peter Selinger 2001-2019
</metadata>
<g transform="translate(0.000000,576.000000) scale(0.100000,-0.100000)"
fill="#000000" stroke="none">
<path d="M2694 5426 c-68 -32 -124 -83 -154 -143 l-25 -48 -3 -622 -3 -622
-47 -34 c-95 -70 -242 -131 -337 -141 -33 -4 -76 -9 -95 -13 -33 -5 -34 -6
-11 -14 39 -15 242 -48 296 -49 28 0 76 3 108 6 73 7 92 1 77 -25 -7 -13 -7
-22 0 -26 6 -4 10 -202 10 -564 0 -468 2 -566 15 -608 20 -69 93 -149 163
-180 l53 -23 583 0 c656 0 648 -1 731 72 24 21 57 64 72 96 l28 57 3 574 c3
549 2 573 -15 568 -10 -3 -54 -18 -98 -34 l-80 -30 -5 -304 -5 -304 -623 -3
-623 -2 3 392 3 392 76 27 c42 15 107 43 144 64 102 55 194 109 194 115 1 3
-25 17 -57 32 -64 30 -160 119 -218 204 -21 30 -41 54 -44 54 -4 0 -27 -25
-50 -55 -23 -30 -44 -55 -46 -55 -2 0 -4 227 -4 505 l0 505 625 0 625 0 0
-198 0 -198 93 -42 c50 -23 96 -42 100 -42 14 0 2 499 -13 542 -23 65 -81 130
-145 163 l-59 30 -595 3 -596 2 -51 -24z m776 -2710 c0 -93 -3 -126 -14 -135
-17 -15 -238 -3 -248 13 -9 13 -10 192 -2 224 6 21 10 22 135 22 l129 0 0
-124z m-442 -8 l-3 -73 -65 0 -65 0 -3 73 -3 72 71 0 71 0 -3 -72z m770 15 c5
-82 -7 -95 -81 -91 l-62 3 -3 59 c-4 86 -3 87 75 84 l68 -3 3 -52z"/>
<path d="M4517 4408 c7 -8 60 -36 118 -63 68 -32 105 -54 105 -64 0 -28 -175
-214 -247 -264 -21 -15 -50 -38 -65 -52 -16 -14 -28 -22 -28 -18 0 4 -4 2 -9
-6 -5 -8 -17 -16 -26 -17 -9 -1 -24 -9 -33 -17 -10 -8 -44 -27 -77 -42 -33
-16 -62 -31 -65 -35 -3 -3 -24 -12 -47 -18 -41 -12 -67 -32 -42 -32 7 0 71 29
143 64 140 69 271 161 363 254 63 64 168 191 162 196 -2 2 -44 23 -94 46 -49
24 -108 52 -130 63 -27 14 -36 15 -28 5z"/>
<path d="M4988 1609 c-131 -14 -233 -82 -281 -188 -16 -34 -21 -66 -21 -126 0
-162 72 -229 315 -290 157 -40 193 -65 187 -131 -2 -30 -10 -43 -36 -60 -63
-43 -234 -42 -395 3 -32 9 -59 14 -60 12 -2 -2 -1 -45 1 -96 l4 -91 41 -15
c240 -89 489 -66 613 57 66 67 88 129 82 231 -4 61 -10 82 -37 124 -48 74
-103 104 -275 149 -160 42 -190 60 -202 119 -5 27 -2 37 24 63 30 29 33 30
124 30 80 0 210 -20 296 -46 l23 -7 -3 108 -3 108 -45 13 c-98 29 -251 43
-352 33z"/>
<path d="M525 1600 c-52 -11 -183 -59 -212 -78 l-23 -14 2 -462 3 -461 138 -3
137 -3 0 390 0 390 55 11 c44 9 66 8 115 -4 81 -21 109 -41 136 -101 23 -49
24 -55 24 -367 l0 -318 136 0 135 0 -3 384 -3 385 45 13 c106 31 219 -1 268
-75 l27 -40 5 -331 5 -331 138 -3 137 -3 0 339 c0 378 -3 404 -67 499 -85 128
-249 192 -467 181 -78 -4 -117 -12 -167 -32 l-65 -26 -60 21 c-32 12 -88 27
-124 35 -70 15 -250 17 -315 4z"/>
<path d="M2760 1604 c-14 -2 -59 -9 -100 -15 -41 -6 -85 -13 -97 -16 l-23 -5
0 -689 0 -690 136 3 136 3 -1 204 -2 204 28 -6 c96 -21 177 -29 238 -24 314
27 500 293 444 637 -31 198 -174 340 -385 385 -63 13 -304 19 -374 9z m325
-248 c109 -51 161 -152 153 -297 -6 -101 -43 -179 -107 -224 -40 -28 -48 -30
-139 -30 -77 0 -105 4 -137 20 l-40 20 -3 254 c-2 179 1 258 9 267 8 10 39 14
113 14 85 0 109 -4 151 -24z"/>
<path d="M3970 1596 c-127 -37 -231 -123 -286 -236 -41 -84 -55 -153 -55 -266
0 -170 42 -285 137 -379 100 -98 220 -138 414 -139 132 0 236 21 321 64 l39
20 0 87 0 86 -32 -6 c-18 -3 -67 -13 -108 -23 -95 -21 -279 -24 -340 -5 -58
17 -134 91 -148 145 -6 22 -9 43 -6 48 3 4 153 8 335 8 l329 0 0 103 c0 178
-45 292 -154 394 -89 84 -147 106 -291 109 -69 2 -127 -2 -155 -10z m248 -237
c48 -24 102 -95 102 -136 l0 -23 -205 0 c-228 0 -219 -3 -190 68 34 80 85 111
184 112 46 0 77 -6 109 -21z"/>
<path d="M5922 1594 c-225 -60 -370 -218 -402 -438 -43 -289 108 -526 368
-577 114 -22 249 5 313 63 38 35 49 35 49 -1 0 -46 17 -52 136 -49 l109 3 5
455 c3 250 3 463 1 473 -4 21 -94 50 -225 72 -110 19 -283 18 -354 -1z m292
-230 c14 -5 16 -35 16 -234 l0 -228 -25 -30 c-39 -47 -116 -75 -192 -70 -84 5
-136 41 -178 123 -27 52 -30 68 -30 149 0 79 4 98 28 148 56 113 145 162 284
153 45 -3 88 -8 97 -11z"/>
<path d="M1907 1243 c-3 -5 -4 -62 -3 -128 l1 -120 263 -3 262 -2 0 130 0 130
-259 0 c-143 0 -262 -3 -264 -7z"/>
</g>
</svg>
